<?xml version="1.0" encoding="utf-8"?>
<svg enable-background="new 0 0 176 240" id="Layer_1" version="1.1" viewBox="0 0 176 240" width="100%" x="0px" xml:space="preserve" xmlns="http://www.w3.org/2000/svg" xmlns:xlink="http://www.w3.org/1999/xlink" y="0px">
<path d=" M59.128319,186.832642   C47.587643,172.753098 44.054955,155.253220 50.712646,145.704559   C52.995014,146.026932 52.914059,148.333084 53.947792,149.679047   C55.600731,151.831223 57.261234,154.335831 60.391117,153.041946   C63.223949,151.870880 63.869949,148.996185 63.444653,146.263474   C63.013626,143.493958 62.101120,140.770782 61.153721,138.115005   C56.358788,124.673729 60.374866,113.322739 69.306053,103.101364   C69.631325,102.729118 70.018066,102.393517 70.428413,102.118927   C70.687027,101.945854 71.043045,101.918335 71.471054,101.791145   C73.523666,103.052223 73.007912,105.254616 73.137604,107.106377   C73.391563,110.732513 74.727180,113.905281 76.789566,116.786934   C77.980484,118.450897 79.594444,120.041862 81.809303,119.039970   C83.998573,118.049667 84.771339,115.943161 84.266457,113.572548   C83.018051,107.710716 81.726723,101.893814 82.622734,95.801758   C84.773216,81.180573 92.315247,70.208733 104.785645,62.492870   C105.335167,62.152863 105.993500,61.959732 106.626503,61.796604   C106.916580,61.721848 107.268250,61.886059 107.723831,61.964642   C109.308517,65.003624 107.248993,68.054054 107.602539,71.180733   C108.478737,78.929878 111.511902,85.578415 116.642113,91.339867   C123.336182,98.857605 124.901955,107.451065 122.002441,116.943726   C121.368637,119.018723 120.952538,121.063324 123.152138,122.215515   C125.688034,123.543854 127.185158,121.580025 128.447495,119.786194   C131.098541,116.018951 131.503006,111.508286 132.132751,107.077698   C134.895874,107.301842 135.472427,109.498032 136.484756,111.076363   C142.415573,120.323105 144.008133,130.123810 139.991867,140.578186   C139.275803,142.442093 138.677826,144.351425 137.960129,146.214661   C137.235764,148.095215 137.088303,149.831955 139.061340,151.033630   C141.005493,152.217712 142.487381,151.140564 144.010147,149.974548   C146.438950,148.114731 146.739243,144.647491 150.147919,142.345871   C154.271652,155.445847 152.862137,167.490692 146.382309,178.857193   C137.759811,193.982269 124.204163,201.708130 106.983620,203.818314   C120.512238,197.045685 128.342499,187.168274 126.416420,171.069748   C125.364059,171.177383 124.714699,171.149597 124.121948,171.319427   C119.674751,172.593445 118.655685,171.731750 119.877510,167.129654   C120.980545,162.974991 121.347267,158.948517 119.600159,154.927170   C119.151703,153.894974 118.757576,152.739105 117.384285,152.384552   C115.384689,154.017670 115.327553,158.780441 111.724213,157.431915   C108.443787,156.204239 110.857323,152.695190 110.825485,150.218857   C110.795013,147.848053 110.985703,145.352280 109.396263,143.524902   C105.723732,139.302582 103.014549,134.676575 102.520317,128.058212   C97.060974,131.876480 93.699646,135.856598 93.055908,141.712860   C92.875420,143.354843 93.170029,145.045135 93.044647,146.697968   C92.837761,149.425079 95.506859,153.437119 91.489304,154.519165   C87.818451,155.507828 87.497482,150.856277 85.446449,148.414276   C81.882103,150.949081 80.747551,154.503876 81.009392,158.614639   C81.124786,160.426224 81.684853,162.205826 81.974564,164.010941   C82.315659,166.136215 82.931335,168.377304 81.179451,170.173233   C79.169685,172.233505 77.189430,170.475388 74.750832,169.477325   C71.465256,177.087280 74.119789,183.560287 77.703506,189.723083   C81.253174,195.827332 87.181168,199.587036 92.852959,203.643661   C79.441589,202.445999 68.371223,196.840057 59.128319,186.832642  M97.007103,122.310677   C94.739685,120.897781 92.617104,120.498611 91.549591,123.618217   C91.098503,124.936447 91.459839,126.402031 93.149689,126.700287   C96.045547,127.211388 97.627663,126.060066 97.007103,122.310677  z" fill="#FFFFFF" opacity="1.000000" stroke="none"/>
<path d=" M103.096359,192.099213   C99.940331,191.867355 99.511726,189.983536 99.668236,187.815353   C99.919037,184.340836 98.306946,182.875549 94.929443,183.195496   C90.679337,183.598083 90.082199,181.059464 89.987068,177.592926   C89.886261,173.919693 91.256035,172.388733 94.946655,172.669266   C97.122452,172.834625 99.200256,172.800934 99.681725,169.657715   C100.709785,162.946060 101.204689,162.751892 108.797417,164.232773   C109.751320,165.552414 109.147423,167.111710 109.377731,168.549072   C110.023888,172.581787 108.603546,174.513062 104.298248,174.069443   C102.447426,173.878738 100.385864,174.043396 100.649490,176.822006   C100.869431,179.140106 100.904800,181.963547 104.304482,181.592850   C109.587639,181.016769 109.657249,183.988922 109.666855,187.994400   C109.678841,192.992966 106.407120,192.015396 103.096359,192.099213  z" fill="#FFFFFF" opacity="1.000000" stroke="none"/>
<path d=" M124.489349,71.666756   C125.742310,70.898872 126.538879,69.875229 128.425262,70.571609   C127.478195,74.960945 127.933853,79.452950 128.871002,83.955353   C129.221832,85.640923 128.059265,87.198395 126.387566,87.872475   C124.430573,88.661598 123.294891,87.248444 122.325264,85.877228   C119.531845,81.926857 120.277092,76.517952 124.489349,71.666756  z" fill="#FFFFFF" opacity="1.000000" stroke="none"/>
<path d=" M46.898586,130.977982   C48.338440,127.633347 47.046547,124.451225 47.489075,121.369812   C52.932182,122.865288 55.410988,129.337280 52.321587,133.440414   C51.509304,134.519226 50.507591,135.526688 49.010765,135.245667   C46.844585,134.838943 46.822498,133.081757 46.898586,130.977982  z" fill="#FFFFFF" opacity="1.000000" stroke="none"/>
<path d=" M69.781601,86.807732   C69.889626,84.709190 69.164589,82.924301 69.943558,81.180008   C74.542542,82.976463 76.441216,87.093292 74.496819,90.754280   C73.809097,92.049149 72.981224,93.570152 71.238167,93.237808   C69.297493,92.867798 69.583923,91.095253 69.606880,89.637978   C69.619759,88.820030 69.716881,88.003403 69.781601,86.807732  z" fill="#FFFFFF" opacity="1.000000" stroke="none"/>
<path d=" M154.731995,133.303192   C153.348816,135.880310 151.938629,135.850082 150.484970,133.828247   C148.161942,130.597183 149.728775,125.622475 153.933105,123.734673   C154.236740,126.880020 154.530060,129.918442 154.731995,133.303192  z" fill="#FFFFFF" opacity="1.000000" stroke="none"/>
</svg>